<svg xmlns="http://www.w3.org/2000/svg" viewBox="0 0 800 450" font-family="-apple-system, Helvetica Neue, Helvetica, Arial, sans-serif">
  <!-- Redrawn from the Claude Code /context panel of this deck's build session, 2026-09-18 -->
  <text x="20" y="42" font-size="32" font-weight="600" fill="#1e3a5f">Context usage</text>
  <text x="20" y="78" font-size="24" fill="#444">claude-fable-5-1 · 613.1k / 1.0M tokens (61%)</text>
  <g stroke="#1e3a5f" stroke-width="1.5">
    <rect x="20"    y="98" width="3.8"   height="32" fill="#8fa8c8"/>
    <rect x="23.8"  y="98" width="17.5"  height="32" fill="#5b7fa6"/>
    <rect x="41.3"  y="98" width="3.8"   height="32" fill="#a8b8cc"/>
    <rect x="45.1"  y="98" width="440.8" height="32" fill="#1e3a5f"/>
    <rect x="485.9" y="98" width="25.1"  height="32" fill="#b9c7d9"/>
    <rect x="511"   y="98" width="269"   height="32" fill="#f4f6f9"/>
  </g>
  <g font-size="24" fill="#222">
    <text x="20"  y="172" font-weight="600" fill="#1e3a5f">Category</text>
    <text x="610" y="172" font-weight="600" fill="#1e3a5f" text-anchor="end">Tokens</text>
    <text x="780" y="172" font-weight="600" fill="#1e3a5f" text-anchor="end">Share</text>
    <line x1="20" y1="184" x2="780" y2="184" stroke="#ccd3dc"/>
    <rect x="20" y="200" width="18" height="18" fill="#8fa8c8"/> <text x="50" y="216">System prompt</text>            <text x="610" y="216" text-anchor="end">4.9k</text>   <text x="780" y="216" text-anchor="end">0.5%</text>
    <rect x="20" y="240" width="18" height="18" fill="#5b7fa6"/> <text x="50" y="256">System tools</text>             <text x="610" y="256" text-anchor="end">23.3k</text>  <text x="780" y="256" text-anchor="end">2.3%</text>
    <rect x="20" y="280" width="18" height="18" fill="#a8b8cc"/> <text x="50" y="296">Agents, memory, skills</text>   <text x="610" y="296" text-anchor="end">5.2k</text>   <text x="780" y="296" text-anchor="end">0.5%</text>
    <rect x="20" y="320" width="18" height="18" fill="#1e3a5f"/> <text x="50" y="336" font-weight="600">Messages and tool results</text> <text x="610" y="336" text-anchor="end" font-weight="600">580.4k</text> <text x="780" y="336" text-anchor="end" font-weight="600">58.0%</text>
    <rect x="20" y="360" width="18" height="18" fill="#b9c7d9"/> <text x="50" y="376">Autocompact buffer</text>       <text x="610" y="376" text-anchor="end">33.0k</text>  <text x="780" y="376" text-anchor="end">3.3%</text>
    <rect x="20" y="400" width="18" height="18" fill="#f4f6f9" stroke="#1e3a5f" stroke-width="1.5"/> <text x="50" y="416">Free space</text> <text x="610" y="416" text-anchor="end">353.3k</text> <text x="780" y="416" text-anchor="end">35.3%</text>
  </g>
  <text x="20" y="446" font-size="17" fill="#666">Claude Code /context panel, this deck's build session, 2026-09-18. Redrawn; figures as shown.</text>
</svg>
